<svg width="60" height="21" viewBox="0 0 60 21" fill="none" xmlns="http://www.w3.org/2000/svg">
<path d="M12.3312 5.453C11.6389 5.6718 10.8693 5.39075 10.5185 4.75322C9.99604 3.80258 8.94919 2.90852 7.1026 2.90852C5.12775 2.90852 3.75649 4.22508 3.75649 5.70575C3.75649 6.94121 4.52417 7.87299 6.03313 8.20119L8.83037 8.77648C12.2595 9.46305 14.0966 11.6303 14.0966 14.3728C14.0966 17.3907 11.6559 20.271 7.21201 20.271C3.24533 20.271 0.99699 18.2169 0.10859 15.9591C-0.229039 15.099 0.250048 14.1333 1.13845 13.8786L1.22333 13.8541C1.98912 13.6353 2.79453 14.0258 3.1001 14.7614C3.69614 16.2006 5.05608 17.3078 7.21201 17.3078C9.54335 17.3078 10.7505 16.1289 10.7505 14.6199C10.7505 13.3581 9.81873 12.3433 8.14379 11.9868L5.40126 11.4115C2.43804 10.8079 0.463196 8.86136 0.463196 5.95284C0.463196 2.68783 3.45282 0 7.07432 0C10.4544 0 12.3104 1.52216 13.229 3.19145C13.71 4.06476 13.2799 5.15498 12.3312 5.453Z" fill="black"/>
<path d="M17.1727 18.4733V8.269C17.1727 7.39758 17.8857 6.69214 18.7647 6.69214C19.6436 6.69214 20.3566 7.39758 20.3566 8.269V18.4733C20.3566 19.3448 19.6436 20.0502 18.7647 20.0502C17.8838 20.0502 17.1727 19.3429 17.1727 18.4733Z" fill="black"/>
<path d="M26.5813 13.3562C26.5813 16.0441 28.3091 17.553 30.3122 17.553C31.7627 17.553 32.6681 16.8495 33.1868 16.0799C33.5621 15.5216 34.2827 15.3103 34.9145 15.5386C35.8312 15.8705 36.1934 16.9834 35.6388 17.7869C34.6297 19.2506 32.8718 20.4597 30.3122 20.4597C26.3889 20.4597 23.3993 17.4153 23.3993 13.3544C23.3993 9.24056 26.3889 6.27734 30.2292 6.27734C32.8699 6.27734 34.6373 7.49206 35.6068 8.98592C36.1292 9.79322 35.7709 10.8759 34.8674 11.206L34.8165 11.2248C34.1638 11.4625 33.415 11.238 33.0453 10.6495C32.5474 9.85735 31.6778 9.21227 30.2575 9.21227C28.3091 9.21415 26.5813 10.6684 26.5813 13.3562Z" fill="black"/>
<path d="M39.283 18.4583V1.78049C39.283 0.901526 40.0054 0.19043 40.8957 0.19043C41.7859 0.19043 42.5084 0.903412 42.5084 1.78049V18.4583C42.5084 19.3372 41.7859 20.0483 40.8957 20.0483C40.0035 20.0502 39.283 19.3372 39.283 18.4583Z" fill="black"/>
<path d="M59.39 13.3561C59.39 17.4718 56.4551 20.4614 52.4507 20.4614C48.4727 20.4614 45.5378 17.4718 45.5378 13.3561C45.5378 9.26868 48.4727 6.27905 52.4507 6.27905C56.4551 6.27905 59.39 9.26868 59.39 13.3561ZM56.1797 13.3561C56.1797 10.5852 54.4237 9.15928 52.4488 9.15928C50.5004 9.15928 48.7179 10.5852 48.7179 13.3561C48.7179 16.1269 50.5004 17.6076 52.4488 17.6076C54.4255 17.6094 56.1797 16.1552 56.1797 13.3561Z" fill="black"/>
<path d="M18.2877 2.71602C17.8104 3.20454 17.669 3.51765 17.701 3.97034C17.7633 4.82479 18.4404 5.15487 18.9742 5.11526C19.2062 5.09828 19.459 5.0549 20.0098 4.58524L21.9884 2.90086C22.5165 2.45949 22.7843 1.95965 22.7485 1.48244C22.7127 0.980714 22.3241 0.124381 21.3942 0.192284C20.8378 0.231894 20.3361 0.724191 19.9004 1.1599L18.2877 2.71602Z" fill="black"/>
</svg>
